<?xml version="1.0" standalone="no"?><svg xmlns="http://www.w3.org/2000/svg" viewBox="0 0 1440 320"><path fill="#5000ca" fill-opacity="0.64" d="M0,256L15,245.3C30,235,60,213,90,192C120,171,150,149,180,144C210,139,240,149,270,149.3C300,149,330,139,360,128C390,117,420,107,450,133.3C480,160,510,224,540,240C570,256,600,224,630,208C660,192,690,192,720,165.3C750,139,780,85,810,69.3C840,53,870,75,900,117.3C930,160,960,224,990,224C1020,224,1050,160,1080,138.7C1110,117,1140,139,1170,122.7C1200,107,1230,53,1260,48C1290,43,1320,85,1350,112C1380,139,1410,149,1425,154.7L1440,160L1440,320L1425,320C1410,320,1380,320,1350,320C1320,320,1290,320,1260,320C1230,320,1200,320,1170,320C1140,320,1110,320,1080,320C1050,320,1020,320,990,320C960,320,930,320,900,320C870,320,840,320,810,320C780,320,750,320,720,320C690,320,660,320,630,320C600,320,570,320,540,320C510,320,480,320,450,320C420,320,390,320,360,320C330,320,300,320,270,320C240,320,210,320,180,320C150,320,120,320,90,320C60,320,30,320,15,320L0,320Z"></path></svg>